<svg width="34" height="49" viewBox="0 0 34 49" fill="none" xmlns="http://www.w3.org/2000/svg">
<path fill-rule="evenodd" clip-rule="evenodd" d="M3.5625 1.78125C3.5625 0.797493 2.76501 0 1.78125 0C0.797495 0 0 0.797493 0 1.78125V45.4219C0 46.4056 0.797492 47.2031 1.78125 47.2031C2.76501 47.2031 3.5625 46.4056 3.5625 45.4219L3.5625 41.3876C6.65887 45.4687 11.4917 48.0938 16.9219 48.0938C26.2676 48.0938 33.8438 40.3182 33.8438 30.7266C33.8438 21.1349 26.2676 13.3594 16.9219 13.3594C11.4917 13.3594 6.65887 15.9844 3.5625 20.0656L3.5625 1.78125ZM3.5625 30.7266C3.5625 38.4385 9.63036 44.5312 16.9219 44.5312C24.2134 44.5312 30.2812 38.4385 30.2812 30.7266C30.2812 27.6211 29.2973 24.7781 27.6457 22.4899L27.6279 22.5079L18.1814 31.9544C17.4858 32.6501 16.358 32.6501 15.6623 31.9544C14.9667 31.2588 14.9667 30.131 15.6623 29.4354L25.1088 19.9889C25.1404 19.9573 25.1729 19.9271 25.2062 19.8984C22.9176 18.0297 20.031 16.9219 16.9219 16.9219C9.63036 16.9219 3.5625 23.0146 3.5625 30.7266Z" fill="white"/>
</svg>
